<mxfile host="app.diagrams.net" modified="2021-09-03T05:40:11.674Z" agent="5.0 (Windows NT 10.0; WOW64) AppleWebKit/537.36 (KHTML, like Gecko) Chrome/92.0.4515.159 Safari/537.36" etag="X2AG-f2poPpaJLK_B6I4" version="14.0.3" type="github">
  <diagram id="9dDiGTJhG8fza1dhKzYW" name="Страница 1">
    <mxGraphModel dx="1185" dy="662" grid="1" gridSize="10" guides="1" tooltips="1" connect="1" arrows="1" fold="1" page="1" pageScale="1" pageWidth="827" pageHeight="1169" background="none" math="0" shadow="1">
      <root>
        <mxCell id="0" />
        <mxCell id="1" parent="0" />
        <mxCell id="5pO4fyjyCrfdYudw-5-W-1" value="Фонд Реновации" style="ellipse;whiteSpace=wrap;html=1;align=center;fontFamily=Times New Roman;verticalAlign=middle;fontSize=16;fontStyle=1" vertex="1" parent="1">
          <mxGeometry x="294" y="200" width="240" height="90" as="geometry" />
        </mxCell>
        <mxCell id="5pO4fyjyCrfdYudw-5-W-2" value="Горячева Е.В.&lt;br&gt;главный спец." style="rounded=0;whiteSpace=wrap;html=1;fontFamily=Times New Roman;fontSize=16;align=center;rotation=0;" vertex="1" parent="1">
          <mxGeometry x="634" y="120" width="140" height="40" as="geometry" />
        </mxCell>
        <mxCell id="5pO4fyjyCrfdYudw-5-W-4" value="Журавлева В.А.&lt;br&gt;ведущий спец." style="rounded=0;whiteSpace=wrap;html=1;fontFamily=Times New Roman;fontSize=16;align=center;" vertex="1" parent="1">
          <mxGeometry x="54" y="120" width="140" height="40" as="geometry" />
        </mxCell>
        <mxCell id="5pO4fyjyCrfdYudw-5-W-5" value="Ерохов А.И.&lt;br&gt;главный спец." style="rounded=0;whiteSpace=wrap;html=1;fontFamily=Times New Roman;fontSize=16;align=center;" vertex="1" parent="1">
          <mxGeometry x="334" y="400" width="160" height="40" as="geometry" />
        </mxCell>
        <mxCell id="5pO4fyjyCrfdYudw-5-W-6" value="" style="endArrow=classic;html=1;fontFamily=Times New Roman;fontSize=16;exitX=0.883;exitY=0.167;exitDx=0;exitDy=0;exitPerimeter=0;entryX=0;entryY=0.5;entryDx=0;entryDy=0;align=center;" edge="1" parent="1" source="5pO4fyjyCrfdYudw-5-W-1" target="5pO4fyjyCrfdYudw-5-W-2">
          <mxGeometry width="50" height="50" relative="1" as="geometry">
            <mxPoint x="454" y="430" as="sourcePoint" />
            <mxPoint x="504" y="380" as="targetPoint" />
            <Array as="points" />
          </mxGeometry>
        </mxCell>
        <mxCell id="5pO4fyjyCrfdYudw-5-W-7" value="" style="endArrow=classic;html=1;fontFamily=Times New Roman;fontSize=16;exitX=0.126;exitY=0.167;exitDx=0;exitDy=0;entryX=1;entryY=0.5;entryDx=0;entryDy=0;exitPerimeter=0;align=center;" edge="1" parent="1" source="5pO4fyjyCrfdYudw-5-W-1" target="5pO4fyjyCrfdYudw-5-W-4">
          <mxGeometry width="50" height="50" relative="1" as="geometry">
            <mxPoint x="454" y="430" as="sourcePoint" />
            <mxPoint x="504" y="380" as="targetPoint" />
          </mxGeometry>
        </mxCell>
        <mxCell id="5pO4fyjyCrfdYudw-5-W-10" value="" style="endArrow=classic;html=1;fontFamily=Times New Roman;fontSize=16;exitX=0.5;exitY=1;exitDx=0;exitDy=0;entryX=0.5;entryY=0;entryDx=0;entryDy=0;align=center;" edge="1" parent="1" source="5pO4fyjyCrfdYudw-5-W-1" target="5pO4fyjyCrfdYudw-5-W-5">
          <mxGeometry width="50" height="50" relative="1" as="geometry">
            <mxPoint x="394" y="320" as="sourcePoint" />
            <mxPoint x="444" y="270" as="targetPoint" />
          </mxGeometry>
        </mxCell>
        <mxCell id="5pO4fyjyCrfdYudw-5-W-11" value="Кинотеатры&lt;br&gt;ПИК" style="rounded=0;whiteSpace=wrap;html=1;fontFamily=Times New Roman;fontSize=16;align=center;" vertex="1" parent="1">
          <mxGeometry x="64" y="200" width="120" height="50" as="geometry" />
        </mxCell>
        <mxCell id="5pO4fyjyCrfdYudw-5-W-12" value="Почта России&lt;br&gt;ПИК" style="rounded=0;whiteSpace=wrap;html=1;fontFamily=Times New Roman;fontSize=16;align=center;" vertex="1" parent="1">
          <mxGeometry x="644" y="200" width="120" height="50" as="geometry" />
        </mxCell>
        <mxCell id="5pO4fyjyCrfdYudw-5-W-13" value="ГУП ЦУГИ&lt;br&gt;и др." style="rounded=0;whiteSpace=wrap;html=1;fontFamily=Times New Roman;fontSize=16;align=center;" vertex="1" parent="1">
          <mxGeometry x="354" y="480" width="120" height="50" as="geometry" />
        </mxCell>
        <mxCell id="5pO4fyjyCrfdYudw-5-W-14" value="" style="endArrow=classic;html=1;fontFamily=Times New Roman;fontSize=16;exitX=0.5;exitY=0;exitDx=0;exitDy=0;entryX=0.5;entryY=1;entryDx=0;entryDy=0;align=center;" edge="1" parent="1" source="5pO4fyjyCrfdYudw-5-W-11" target="5pO4fyjyCrfdYudw-5-W-4">
          <mxGeometry width="50" height="50" relative="1" as="geometry">
            <mxPoint x="394" y="290" as="sourcePoint" />
            <mxPoint x="444" y="240" as="targetPoint" />
          </mxGeometry>
        </mxCell>
        <mxCell id="5pO4fyjyCrfdYudw-5-W-15" value="" style="endArrow=classic;html=1;fontFamily=Times New Roman;fontSize=16;exitX=0.5;exitY=0;exitDx=0;exitDy=0;entryX=0.5;entryY=1;entryDx=0;entryDy=0;align=center;" edge="1" parent="1" source="5pO4fyjyCrfdYudw-5-W-12" target="5pO4fyjyCrfdYudw-5-W-2">
          <mxGeometry width="50" height="50" relative="1" as="geometry">
            <mxPoint x="394" y="290" as="sourcePoint" />
            <mxPoint x="444" y="240" as="targetPoint" />
          </mxGeometry>
        </mxCell>
        <mxCell id="5pO4fyjyCrfdYudw-5-W-16" value="" style="endArrow=classic;html=1;fontFamily=Times New Roman;fontSize=16;exitX=0.5;exitY=0;exitDx=0;exitDy=0;entryX=0.5;entryY=1;entryDx=0;entryDy=0;align=center;" edge="1" parent="1" source="5pO4fyjyCrfdYudw-5-W-13" target="5pO4fyjyCrfdYudw-5-W-5">
          <mxGeometry width="50" height="50" relative="1" as="geometry">
            <mxPoint x="394" y="290" as="sourcePoint" />
            <mxPoint x="444" y="240" as="targetPoint" />
          </mxGeometry>
        </mxCell>
        <mxCell id="5pO4fyjyCrfdYudw-5-W-17" value="Коропенко Е.В.&lt;br&gt;специалист 1 кат." style="rounded=0;whiteSpace=wrap;html=1;fontFamily=Times New Roman;fontSize=16;align=center;" vertex="1" parent="1">
          <mxGeometry x="174" y="590" width="120" height="60" as="geometry" />
        </mxCell>
        <mxCell id="5pO4fyjyCrfdYudw-5-W-18" value="Абраменков И.С. специалист 2 кат." style="rounded=0;whiteSpace=wrap;html=1;fontFamily=Times New Roman;fontSize=16;align=center;" vertex="1" parent="1">
          <mxGeometry x="534" y="590" width="120" height="60" as="geometry" />
        </mxCell>
        <mxCell id="5pO4fyjyCrfdYudw-5-W-19" value="КП УГС&lt;br&gt;ГлавУпДК" style="rounded=0;whiteSpace=wrap;html=1;fontFamily=Times New Roman;fontSize=16;align=center;" vertex="1" parent="1">
          <mxGeometry x="174" y="680" width="120" height="40" as="geometry" />
        </mxCell>
        <mxCell id="5pO4fyjyCrfdYudw-5-W-20" value="ПАО МОЭК&lt;br&gt;ПАО Мосэнерго" style="rounded=0;whiteSpace=wrap;html=1;fontFamily=Times New Roman;fontSize=16;align=center;" vertex="1" parent="1">
          <mxGeometry x="534" y="680" width="120" height="40" as="geometry" />
        </mxCell>
        <mxCell id="5pO4fyjyCrfdYudw-5-W-21" value="" style="endArrow=classic;html=1;fontFamily=Times New Roman;fontSize=16;align=center;exitX=0.5;exitY=0;exitDx=0;exitDy=0;entryX=0.5;entryY=1;entryDx=0;entryDy=0;" edge="1" parent="1" source="5pO4fyjyCrfdYudw-5-W-19" target="5pO4fyjyCrfdYudw-5-W-17">
          <mxGeometry width="50" height="50" relative="1" as="geometry">
            <mxPoint x="490" y="600" as="sourcePoint" />
            <mxPoint x="540" y="550" as="targetPoint" />
          </mxGeometry>
        </mxCell>
        <mxCell id="5pO4fyjyCrfdYudw-5-W-22" value="" style="endArrow=classic;html=1;fontFamily=Times New Roman;fontSize=16;align=center;exitX=0.5;exitY=0;exitDx=0;exitDy=0;entryX=0.5;entryY=1;entryDx=0;entryDy=0;" edge="1" parent="1" source="5pO4fyjyCrfdYudw-5-W-20" target="5pO4fyjyCrfdYudw-5-W-18">
          <mxGeometry width="50" height="50" relative="1" as="geometry">
            <mxPoint x="490" y="600" as="sourcePoint" />
            <mxPoint x="540" y="550" as="targetPoint" />
          </mxGeometry>
        </mxCell>
        <mxCell id="5pO4fyjyCrfdYudw-5-W-27" value="" style="endArrow=classic;startArrow=classic;html=1;fontFamily=Times New Roman;fontSize=16;align=center;exitX=1;exitY=0.5;exitDx=0;exitDy=0;entryX=0;entryY=0.5;entryDx=0;entryDy=0;" edge="1" parent="1" source="5pO4fyjyCrfdYudw-5-W-17" target="5pO4fyjyCrfdYudw-5-W-18">
          <mxGeometry width="50" height="50" relative="1" as="geometry">
            <mxPoint x="490" y="530" as="sourcePoint" />
            <mxPoint x="540" y="480" as="targetPoint" />
          </mxGeometry>
        </mxCell>
        <mxCell id="5pO4fyjyCrfdYudw-5-W-29" value="Взаимозаменяемы&amp;nbsp;" style="text;html=1;strokeColor=none;fillColor=none;align=center;verticalAlign=middle;whiteSpace=wrap;rounded=0;fontFamily=Times New Roman;fontSize=12;" vertex="1" parent="1">
          <mxGeometry x="394" y="600" width="40" height="20" as="geometry" />
        </mxCell>
        <mxCell id="5pO4fyjyCrfdYudw-5-W-31" value="" style="endArrow=classic;html=1;fontFamily=Times New Roman;fontSize=12;align=center;entryX=1;entryY=1;entryDx=0;entryDy=0;exitX=0;exitY=0;exitDx=0;exitDy=0;" edge="1" parent="1" source="5pO4fyjyCrfdYudw-5-W-5" target="5pO4fyjyCrfdYudw-5-W-4">
          <mxGeometry width="50" height="50" relative="1" as="geometry">
            <mxPoint x="330" y="400" as="sourcePoint" />
            <mxPoint x="540" y="150" as="targetPoint" />
          </mxGeometry>
        </mxCell>
        <mxCell id="5pO4fyjyCrfdYudw-5-W-32" value="" style="endArrow=classic;html=1;fontFamily=Times New Roman;fontSize=12;align=center;exitX=1;exitY=0;exitDx=0;exitDy=0;entryX=0;entryY=0;entryDx=0;entryDy=0;" edge="1" parent="1" source="5pO4fyjyCrfdYudw-5-W-4" target="5pO4fyjyCrfdYudw-5-W-2">
          <mxGeometry width="50" height="50" relative="1" as="geometry">
            <mxPoint x="490" y="200" as="sourcePoint" />
            <mxPoint x="540" y="150" as="targetPoint" />
          </mxGeometry>
        </mxCell>
        <mxCell id="5pO4fyjyCrfdYudw-5-W-33" value="" style="endArrow=classic;html=1;fontFamily=Times New Roman;fontSize=12;align=center;exitX=0;exitY=1;exitDx=0;exitDy=0;entryX=1;entryY=0;entryDx=0;entryDy=0;" edge="1" parent="1" source="5pO4fyjyCrfdYudw-5-W-2" target="5pO4fyjyCrfdYudw-5-W-5">
          <mxGeometry width="50" height="50" relative="1" as="geometry">
            <mxPoint x="490" y="200" as="sourcePoint" />
            <mxPoint x="540" y="150" as="targetPoint" />
          </mxGeometry>
        </mxCell>
        <mxCell id="5pO4fyjyCrfdYudw-5-W-34" value="замещает во время отпуска" style="text;html=1;strokeColor=none;fillColor=none;align=center;verticalAlign=middle;whiteSpace=wrap;rounded=0;fontFamily=Times New Roman;fontSize=12;" vertex="1" parent="1">
          <mxGeometry x="340" y="100" width="160" height="20" as="geometry" />
        </mxCell>
        <mxCell id="5pO4fyjyCrfdYudw-5-W-35" value="замещает во время отпуска" style="text;html=1;strokeColor=none;fillColor=none;align=center;verticalAlign=middle;whiteSpace=wrap;rounded=0;fontFamily=Times New Roman;fontSize=12;rotation=-120;" vertex="1" parent="1">
          <mxGeometry x="188.33" y="292.5" width="160" height="30" as="geometry" />
        </mxCell>
        <mxCell id="5pO4fyjyCrfdYudw-5-W-36" value="замещает во время отпуска" style="text;html=1;strokeColor=none;fillColor=none;align=center;verticalAlign=middle;whiteSpace=wrap;rounded=0;fontFamily=Times New Roman;fontSize=12;rotation=-240;" vertex="1" parent="1">
          <mxGeometry x="489.26" y="281.78" width="152.34" height="30" as="geometry" />
        </mxCell>
        <mxCell id="5pO4fyjyCrfdYudw-5-W-38" value="Отдел обработки заказов" style="text;html=1;strokeColor=none;fillColor=none;align=center;verticalAlign=middle;whiteSpace=wrap;rounded=0;fontFamily=Times New Roman;fontSize=20;fontStyle=1" vertex="1" parent="1">
          <mxGeometry x="290" y="40" width="230" height="20" as="geometry" />
        </mxCell>
      </root>
    </mxGraphModel>
  </diagram>
</mxfile>
